<svg width="398" height="180" viewBox="0 0 398 180" fill="none" xmlns="http://www.w3.org/2000/svg">
<g id="logo">
<g id="iCommunity" filter="url(#filter0_d)">
<path d="M15.6218 96.472C15.6218 88.8944 16.3898 82.136 17.9258 76.1968C19.513 70.2576 21.5098 67.288 23.9162 67.288C25.0938 67.288 25.6826 67.928 25.6826 69.208C25.1706 70.5392 24.5306 72.3056 23.7626 74.5072C22.9946 76.7088 21.9706 80.7024 20.6906 86.488C19.4618 92.2224 18.8474 97.3424 18.8474 101.848C18.8474 102.565 18.4634 102.923 17.6954 102.923C16.313 102.923 15.6218 100.773 15.6218 96.472ZM25.913 60.0688C24.8378 60.0688 24.3002 59.0448 24.3002 56.9968C24.3002 55.768 24.633 54.488 25.2986 53.1568C25.9642 51.7744 26.9114 51.0832 28.1402 51.0832C29.1642 51.0832 29.6762 51.672 29.6762 52.8496C29.6762 54.0272 28.729 55.9984 26.8346 58.7632L25.913 60.0688ZM74.8735 63.5248C74.8735 63.7296 74.6431 63.8576 74.1823 63.9088C73.7726 63.96 73.3374 63.8832 72.8766 63.6784C72.467 63.4736 72.2622 63.192 72.2622 62.8336C72.2622 57.6112 72.851 53.4128 74.0287 50.2384C75.2062 47.0128 76.7422 45.4 78.6366 45.4C79.1486 45.4 79.5838 45.5792 79.9422 45.9376C80.3006 46.296 80.4799 46.7824 80.4799 47.3968C78.1246 49.752 76.4606 53.1824 75.4878 57.688C75.0782 59.5312 74.8735 61.4768 74.8735 63.5248ZM70.2654 47.2432C63.1999 47.2432 56.8766 51.3648 51.2958 59.608C46.483 66.7248 43.3342 75.0192 41.8494 84.4912C41.3374 87.6144 41.0814 90.4816 41.0814 93.0928C41.0814 98.1104 42.003 102.13 43.8463 105.15C45.6894 108.222 48.275 109.758 51.603 109.758C56.1086 109.758 59.9486 107.173 63.123 102.002C65.2734 98.52 66.3486 95.448 66.3486 92.7856C66.3486 91.608 66.0414 91.0192 65.427 91.0192C65.7342 89.8416 66.5022 89.2528 67.731 89.2528C69.1646 89.2528 69.8814 90.2768 69.8814 92.3248C69.8814 96.1648 68.1918 100.261 64.8126 104.613C60.7678 109.784 56.0318 112.37 50.6047 112.37C43.795 112.37 39.187 108.965 36.7806 102.155C35.603 98.9808 35.0143 95.3968 35.0143 91.4032C35.0143 87.3584 35.6798 82.8528 37.011 77.8864C39.571 68.056 43.8718 59.8896 49.9134 53.3872C56.0062 46.8848 62.739 43.608 70.1118 43.5568C71.1358 43.5568 71.8783 43.8896 72.3391 44.5552C72.7998 45.2208 73.0046 45.8608 72.9534 46.4752V47.4736C72.5438 47.32 71.6479 47.2432 70.2654 47.2432ZM86.3526 103.691C80.055 103.691 76.9062 99.3648 76.9062 90.712C76.9062 85.848 78.135 80.984 80.5926 76.12C83.7158 69.976 87.4278 66.904 91.7286 66.904C92.343 66.904 92.855 67.0576 93.2646 67.3648C93.6742 67.672 93.9558 68.1328 94.1094 68.7472C90.8838 68.7472 88.0934 71.3328 85.7383 76.504C83.383 81.6752 82.2054 86.7696 82.2054 91.7872C82.2054 97.88 83.8694 100.926 87.1974 100.926C89.0918 100.926 91.063 99.4928 93.111 96.6256C95.159 93.7072 96.8486 89.8928 98.1798 85.1824C99.5622 80.472 100.253 75.736 100.253 70.9744V70.0528C98.6662 69.0288 97.3607 67.7488 96.3366 66.2128C95.3126 64.6768 94.8006 63.5504 94.8006 62.8336C94.8006 62.1168 95.1078 61.4512 95.7222 60.8368C96.3878 60.1712 97.0534 59.8384 97.719 59.8384C98.6918 59.8384 99.639 60.7088 100.561 62.4496C101.482 64.1904 102.122 66.1616 102.481 68.3632C104.068 69.4384 105.45 69.976 106.628 69.976C107.857 69.976 108.829 69.7712 109.546 69.3616C109.546 70.0784 109.29 70.7184 108.778 71.2816C108.266 71.8448 107.473 72.1264 106.397 72.1264C105.322 72.1264 104.093 71.8704 102.711 71.3584C102.66 76.2736 101.917 81.2144 100.484 86.1808C99.0502 91.1472 97.0534 95.32 94.4935 98.6992C91.9334 102.027 89.2198 103.691 86.3526 103.691ZM127.41 93.6304C127.41 87.3328 128.562 79.3712 130.866 69.7456C131.019 69.2336 130.866 69.0032 130.405 69.0544C130.047 69.1056 129.714 69.2592 129.407 69.5152C127.154 71.4096 124.671 74.9168 121.957 80.0368C119.243 85.1568 117.067 89.8416 115.429 94.0912C113.791 98.2896 112.971 100.747 112.971 101.464C112.971 102.078 112.587 102.386 111.819 102.386C110.283 102.386 109.515 100.363 109.515 96.3184C109.515 88.6384 110.283 81.7264 111.819 75.5824C113.355 69.3872 115.224 66.2896 117.426 66.2896C118.399 66.2896 118.885 66.8272 118.885 67.9024C116.53 75.3264 114.84 82.9552 113.816 90.7888H114.507C121.266 73.8928 127.487 65.4448 133.17 65.4448C135.627 65.4448 136.856 66.648 136.856 69.0544C134.45 76.2224 132.709 83.288 131.634 90.2512H132.248C133.938 86.6672 135.627 83.416 137.317 80.4976C139.058 77.528 141.08 74.7888 143.384 72.28C145.688 69.72 147.762 68.44 149.605 68.44C152.063 68.44 153.291 69.6176 153.291 71.9728C150.629 80.8304 149.298 89.4576 149.298 97.8544C149.298 103.282 150.117 105.995 151.755 105.995C152.319 105.995 152.882 105.739 153.445 105.227C154.008 104.766 154.392 104.536 154.597 104.536C155.314 104.536 155.288 105.099 154.52 106.226C154.315 106.584 153.855 107.07 153.138 107.685C152.472 108.299 151.807 108.606 151.141 108.606C149.144 108.606 147.583 107.198 146.456 104.382C145.381 101.618 144.843 98.008 144.843 93.5536C144.843 85.72 145.663 78.8336 147.301 72.8944C147.403 72.536 147.275 72.3568 146.917 72.3568C146.61 72.408 146.303 72.5616 145.995 72.8176C143.077 75.3264 139.826 79.9856 136.242 86.7952C132.658 93.5536 130.866 97.5472 130.866 98.776C130.866 99.3904 130.456 99.6976 129.637 99.6976C128.152 99.6976 127.41 97.6752 127.41 93.6304ZM178.503 93.6304C178.503 87.3328 179.655 79.3712 181.959 69.7456C182.113 69.2336 181.959 69.0032 181.499 69.0544C181.14 69.1056 180.807 69.2592 180.5 69.5152C178.247 71.4096 175.764 74.9168 173.051 80.0368C170.337 85.1568 168.161 89.8416 166.523 94.0912C164.884 98.2896 164.065 100.747 164.065 101.464C164.065 102.078 163.681 102.386 162.913 102.386C161.377 102.386 160.609 100.363 160.609 96.3184C160.609 88.6384 161.377 81.7264 162.913 75.5824C164.449 69.3872 166.318 66.2896 168.52 66.2896C169.492 66.2896 169.979 66.8272 169.979 67.9024C167.623 75.3264 165.934 82.9552 164.91 90.7888H165.601C172.359 73.8928 178.58 65.4448 184.263 65.4448C186.721 65.4448 187.95 66.648 187.95 69.0544C185.543 76.2224 183.803 83.288 182.727 90.2512H183.342C185.031 86.6672 186.721 83.416 188.411 80.4976C190.151 77.528 192.174 74.7888 194.478 72.28C196.782 69.72 198.855 68.44 200.699 68.44C203.156 68.44 204.385 69.6176 204.385 71.9728C201.723 80.8304 200.391 89.4576 200.391 97.8544C200.391 103.282 201.211 105.995 202.849 105.995C203.412 105.995 203.975 105.739 204.539 105.227C205.102 104.766 205.486 104.536 205.691 104.536C206.407 104.536 206.382 105.099 205.614 106.226C205.409 106.584 204.948 107.07 204.231 107.685C203.566 108.299 202.9 108.606 202.235 108.606C200.238 108.606 198.676 107.198 197.55 104.382C196.475 101.618 195.937 98.008 195.937 93.5536C195.937 85.72 196.756 78.8336 198.395 72.8944C198.497 72.536 198.369 72.3568 198.011 72.3568C197.703 72.408 197.396 72.5616 197.089 72.8176C194.171 75.3264 190.919 79.9856 187.335 86.7952C183.751 93.5536 181.959 97.5472 181.959 98.776C181.959 99.3904 181.55 99.6976 180.731 99.6976C179.246 99.6976 178.503 97.6752 178.503 93.6304ZM237.738 108.76C238.352 108.76 238.916 108.478 239.428 107.915C239.991 107.403 240.503 106.584 240.964 105.458C241.015 104.997 241.322 104.766 241.885 104.766C242.448 104.766 242.653 104.997 242.5 105.458C242.397 105.918 242.192 106.482 241.885 107.147C241.629 107.813 241.04 108.683 240.119 109.758C239.248 110.885 238.352 111.448 237.431 111.448C235.383 111.448 233.796 110.168 232.669 107.608C231.492 105.048 230.903 101.899 230.903 98.1616C230.903 94.3728 231.184 90.4816 231.748 86.488H231.056C224.861 97.2912 220.1 102.693 216.772 102.693C212.829 102.693 210.858 99.6976 210.858 93.7072C210.858 87.6656 212.138 81.6496 214.698 75.6592C217.514 69.0544 219.997 65.752 222.148 65.752C223.069 65.752 223.53 66.3152 223.53 67.4416C221.38 73.1248 219.536 78.6544 218 84.0304C216.464 89.4064 215.696 93.4256 215.696 96.088C215.696 98.6992 216.311 100.005 217.54 100.005C218.41 100.005 219.69 98.9552 221.38 96.856C223.12 94.7568 224.887 92.1968 226.679 89.176C230.519 82.6736 233.437 77.144 235.434 72.5872C237.482 68.0304 239.581 65.752 241.732 65.752C242.756 65.752 243.268 66.3152 243.268 67.4416C239.991 73.944 237.661 81.7008 236.279 90.712C235.716 94.296 235.434 97.8032 235.434 101.234C235.434 106.251 236.202 108.76 237.738 108.76ZM253.164 90.5584C259.768 74.2256 266.194 66.0592 272.44 66.0592C275.052 66.0592 276.357 67.3136 276.357 69.8224C275.999 71 275.538 72.5616 274.975 74.5072C274.412 76.4016 273.644 79.832 272.671 84.7984C271.749 89.7648 271.288 94.1168 271.288 97.8544C271.288 103.282 272.082 105.995 273.669 105.995C274.284 105.995 274.872 105.739 275.436 105.227C275.999 104.766 276.383 104.536 276.588 104.536C277.304 104.536 277.304 105.099 276.588 106.226C276.332 106.584 275.845 107.07 275.128 107.685C274.463 108.299 273.772 108.606 273.055 108.606C271.109 108.606 269.573 107.198 268.447 104.382C267.372 101.618 266.834 98.008 266.834 93.5536C266.834 86.488 267.935 78.7312 270.136 70.2832C270.341 69.6176 270.136 69.2848 269.522 69.2848C269.112 69.2848 268.652 69.4896 268.14 69.8992C265.682 72.0496 263.096 75.608 260.383 80.5744C257.669 85.5408 255.544 89.9952 254.008 93.9376C252.472 97.8288 251.704 100.107 251.704 100.773C251.704 101.387 251.346 101.694 250.629 101.694C248.991 101.694 248.172 99.672 248.172 95.6272C248.172 87.9984 248.94 81.0864 250.476 74.8912C252.063 68.696 253.957 65.5984 256.159 65.5984C257.08 65.5984 257.541 66.1616 257.541 67.288C255.186 74.9168 253.496 82.6736 252.472 90.5584H253.164ZM283.653 96.472C283.653 88.8944 284.421 82.136 285.957 76.1968C287.544 70.2576 289.541 67.288 291.947 67.288C293.125 67.288 293.714 67.928 293.714 69.208C293.202 70.5392 292.562 72.3056 291.794 74.5072C291.026 76.7088 290.002 80.7024 288.722 86.488C287.493 92.2224 286.879 97.3424 286.879 101.848C286.879 102.565 286.495 102.923 285.727 102.923C284.344 102.923 283.653 100.773 283.653 96.472ZM293.944 60.0688C292.869 60.0688 292.331 59.0448 292.331 56.9968C292.331 55.768 292.664 54.488 293.33 53.1568C293.995 51.7744 294.943 51.0832 296.171 51.0832C297.195 51.0832 297.707 51.672 297.707 52.8496C297.707 54.0272 296.76 55.9984 294.866 58.7632L293.944 60.0688ZM302.969 69.7456C300.972 69.7456 299.973 68.9264 299.973 67.288C299.973 66.6736 300.229 66.2896 300.742 66.136C300.793 66.0848 300.869 66.0592 300.972 66.0592C301.279 66.4176 301.842 66.5968 302.661 66.5968C303.532 66.5968 304.889 66.5456 306.732 66.4432C309.138 59.9408 311.442 56.6896 313.644 56.6896C314.514 56.6896 314.949 57.176 314.949 58.1488C314.13 60.1968 313.209 62.8336 312.185 66.0592C317.253 65.496 320.556 65.2144 322.092 65.2144C322.501 65.2144 322.706 65.4192 322.706 65.8288C322.706 66.648 322.169 67.0576 321.094 67.0576C320.53 67.0576 317.279 67.5952 311.34 68.6704C307.295 81.4704 305.273 91.8384 305.273 99.7744C305.273 107.71 306.86 111.678 310.034 111.678C311.314 111.678 312.517 111.115 313.644 109.989C314.77 108.914 315.564 107.838 316.025 106.763C316.229 106.2 316.665 106.046 317.33 106.302C317.637 106.405 317.74 106.558 317.637 106.763C317.33 107.429 316.946 108.197 316.485 109.067C316.025 109.938 315.129 111.013 313.797 112.293C312.466 113.573 311.109 114.213 309.727 114.213C303.634 114.213 300.588 108.914 300.588 98.3152C300.588 89.3552 302.252 79.7808 305.58 69.592C304.863 69.6944 303.993 69.7456 302.969 69.7456ZM322.807 127.038C327.415 127.038 331.024 124.862 333.635 120.51C335.888 116.67 337.629 111.883 338.858 106.149C329.591 106.354 322.474 109.886 317.507 116.747C317.2 117.208 316.714 117.285 316.048 116.978C315.69 116.773 315.587 116.517 315.741 116.21C317.943 112.882 321.015 110.04 324.957 107.685C328.899 105.381 333.687 104.126 339.319 103.922C339.882 101.362 340.419 98.3664 340.931 94.936C341.443 91.5056 342.032 88.1776 342.698 84.952H342.007C335.351 96.7792 330.282 102.693 326.8 102.693C322.909 102.693 320.963 99.6976 320.963 93.7072C320.963 87.7168 322.243 81.7008 324.803 75.6592C327.363 69.5664 329.693 66.2896 331.792 65.8288L332.253 65.752C333.123 65.752 333.559 66.3152 333.559 67.4416C332.995 68.824 332.279 70.6416 331.408 72.8944C330.538 75.096 329.386 78.7568 327.952 83.8768C326.519 88.9456 325.802 92.9136 325.802 95.7808C325.802 98.5968 326.416 100.005 327.645 100.005C329.079 100.005 331.383 97.5216 334.557 92.5552C339.216 85.2848 343.261 77.912 346.691 70.4368C348.176 67.3136 349.763 65.752 351.453 65.752C352.528 65.752 353.066 66.3408 353.066 67.5184C352.093 69.3104 350.915 72.664 349.533 77.5792C348.151 82.4944 347.024 87.4608 346.154 92.4784C345.283 97.4448 344.541 101.336 343.927 104.152C347.818 104.818 350.071 106.507 350.685 109.221C350.787 109.682 350.839 110.296 350.839 111.064C350.839 111.883 350.531 112.574 349.917 113.138C349.303 113.752 348.765 114.059 348.304 114.059C348.407 113.701 348.432 113.061 348.381 112.139C348.33 111.269 348.151 110.526 347.843 109.912C347.587 109.298 347.075 108.658 346.307 107.992C345.539 107.326 344.541 106.84 343.312 106.533C339.37 121.381 332.535 128.805 322.807 128.805C318.608 128.805 315.818 127.32 314.435 124.35C314.384 124.197 314.359 124.069 314.359 123.966C314.359 123.659 314.64 123.454 315.203 123.352C315.715 123.301 316.099 123.48 316.355 123.89C317.277 125.989 319.427 127.038 322.807 127.038Z" fill="#FC461E"/>
</g>
<g id="worldwide" filter="url(#filter1_d)">
<path d="M203.867 144.012L206.305 134.32H208.473L204.781 147H203.023L199.941 137.391L196.941 147H195.184L191.504 134.32H193.66L196.156 143.812L199.109 134.32H200.855L203.867 144.012ZM210.113 140.543C210.113 139.301 210.355 138.184 210.84 137.191C211.332 136.199 212.012 135.434 212.879 134.895C213.754 134.355 214.75 134.086 215.867 134.086C217.594 134.086 218.988 134.684 220.051 135.879C221.121 137.074 221.656 138.664 221.656 140.648V140.801C221.656 142.035 221.418 143.145 220.941 144.129C220.473 145.105 219.797 145.867 218.914 146.414C218.039 146.961 217.031 147.234 215.891 147.234C214.172 147.234 212.777 146.637 211.707 145.441C210.645 144.246 210.113 142.664 210.113 140.695V140.543ZM212.293 140.801C212.293 142.207 212.617 143.336 213.266 144.188C213.922 145.039 214.797 145.465 215.891 145.465C216.992 145.465 217.867 145.035 218.516 144.176C219.164 143.309 219.488 142.098 219.488 140.543C219.488 139.152 219.156 138.027 218.492 137.168C217.836 136.301 216.961 135.867 215.867 135.867C214.797 135.867 213.934 136.293 213.277 137.145C212.621 137.996 212.293 139.215 212.293 140.801ZM230.504 136.266C230.176 136.211 229.82 136.184 229.438 136.184C228.016 136.184 227.051 136.789 226.543 138V147H224.375V134.32H226.484L226.52 135.785C227.23 134.652 228.238 134.086 229.543 134.086C229.965 134.086 230.285 134.141 230.504 134.25V136.266ZM234.863 147H232.695V129H234.863V147ZM237.816 140.555C237.816 138.609 238.277 137.047 239.199 135.867C240.121 134.68 241.328 134.086 242.82 134.086C244.305 134.086 245.48 134.594 246.348 135.609V129H248.516V147H246.523L246.418 145.641C245.551 146.703 244.344 147.234 242.797 147.234C241.328 147.234 240.129 146.633 239.199 145.43C238.277 144.227 237.816 142.656 237.816 140.719V140.555ZM239.984 140.801C239.984 142.238 240.281 143.363 240.875 144.176C241.469 144.988 242.289 145.395 243.336 145.395C244.711 145.395 245.715 144.777 246.348 143.543V137.719C245.699 136.523 244.703 135.926 243.359 135.926C242.297 135.926 241.469 136.336 240.875 137.156C240.281 137.977 239.984 139.191 239.984 140.801ZM263.117 144.012L265.555 134.32H267.723L264.031 147H262.273L259.191 137.391L256.191 147H254.434L250.754 134.32H252.91L255.406 143.812L258.359 134.32H260.105L263.117 144.012ZM272.293 147H270.125V134.32H272.293V147ZM269.949 130.957C269.949 130.605 270.055 130.309 270.266 130.066C270.484 129.824 270.805 129.703 271.227 129.703C271.648 129.703 271.969 129.824 272.188 130.066C272.406 130.309 272.516 130.605 272.516 130.957C272.516 131.309 272.406 131.602 272.188 131.836C271.969 132.07 271.648 132.188 271.227 132.188C270.805 132.188 270.484 132.07 270.266 131.836C270.055 131.602 269.949 131.309 269.949 130.957ZM275.246 140.555C275.246 138.609 275.707 137.047 276.629 135.867C277.551 134.68 278.758 134.086 280.25 134.086C281.734 134.086 282.91 134.594 283.777 135.609V129H285.945V147H283.953L283.848 145.641C282.98 146.703 281.773 147.234 280.227 147.234C278.758 147.234 277.559 146.633 276.629 145.43C275.707 144.227 275.246 142.656 275.246 140.719V140.555ZM277.414 140.801C277.414 142.238 277.711 143.363 278.305 144.176C278.898 144.988 279.719 145.395 280.766 145.395C282.141 145.395 283.145 144.777 283.777 143.543V137.719C283.129 136.523 282.133 135.926 280.789 135.926C279.727 135.926 278.898 136.336 278.305 137.156C277.711 137.977 277.414 139.191 277.414 140.801ZM294.582 147.234C292.863 147.234 291.465 146.672 290.387 145.547C289.309 144.414 288.77 142.902 288.77 141.012V140.613C288.77 139.355 289.008 138.234 289.484 137.25C289.969 136.258 290.641 135.484 291.5 134.93C292.367 134.367 293.305 134.086 294.312 134.086C295.961 134.086 297.242 134.629 298.156 135.715C299.07 136.801 299.527 138.355 299.527 140.379V141.281H290.938C290.969 142.531 291.332 143.543 292.027 144.316C292.73 145.082 293.621 145.465 294.699 145.465C295.465 145.465 296.113 145.309 296.645 144.996C297.176 144.684 297.641 144.27 298.039 143.754L299.363 144.785C298.301 146.418 296.707 147.234 294.582 147.234ZM294.312 135.867C293.438 135.867 292.703 136.188 292.109 136.828C291.516 137.461 291.148 138.352 291.008 139.5H297.359V139.336C297.297 138.234 297 137.383 296.469 136.781C295.938 136.172 295.219 135.867 294.312 135.867Z" fill="#FC461E"/>
</g>
<line id="Line 1" x1="174.5" x2="174.5" y2="50" stroke="#FC461E" stroke-width="3"/>
<line id="Line 2" x1="174.5" y1="130" x2="174.5" y2="180" stroke="#FC461E" stroke-width="3"/>
</g>
<defs>
<filter id="filter0_d" x="11.6218" y="43.5568" width="345.444" height="94.248" filterUnits="userSpaceOnUse" color-interpolation-filters="sRGB">
<feFlood flood-opacity="0" result="BackgroundImageFix"/>
<feColorMatrix in="SourceAlpha" type="matrix" values="0 0 0 0 0 0 0 0 0 0 0 0 0 0 0 0 0 0 127 0"/>
<feOffset dy="5"/>
<feGaussianBlur stdDeviation="2"/>
<feColorMatrix type="matrix" values="0 0 0 0 0 0 0 0 0 0 0 0 0 0 0 0 0 0 0.3 0"/>
<feBlend mode="normal" in2="BackgroundImageFix" result="effect1_dropShadow"/>
<feBlend mode="normal" in="SourceGraphic" in2="effect1_dropShadow" result="shape"/>
</filter>
<filter id="filter1_d" x="187.504" y="129" width="116.023" height="26.2344" filterUnits="userSpaceOnUse" color-interpolation-filters="sRGB">
<feFlood flood-opacity="0" result="BackgroundImageFix"/>
<feColorMatrix in="SourceAlpha" type="matrix" values="0 0 0 0 0 0 0 0 0 0 0 0 0 0 0 0 0 0 127 0"/>
<feOffset dy="4"/>
<feGaussianBlur stdDeviation="2"/>
<feColorMatrix type="matrix" values="0 0 0 0 0 0 0 0 0 0 0 0 0 0 0 0 0 0 0.25 0"/>
<feBlend mode="normal" in2="BackgroundImageFix" result="effect1_dropShadow"/>
<feBlend mode="normal" in="SourceGraphic" in2="effect1_dropShadow" result="shape"/>
</filter>
</defs>
</svg>
