<svg width="244" height="43" viewBox="0 0 244 43" fill="none" xmlns="http://www.w3.org/2000/svg">
<g id="share ">
<path id="Line 4" d="M50 21.0021L0 21" stroke="white" stroke-width="3"/>
<path id="Line 5" d="M244 21.0021L194 21" stroke="white" stroke-width="3"/>
<path id="Share" d="M94.8374 26.24C93.8614 26.24 93.0214 26.136 92.3174 25.928C91.6294 25.704 90.9654 25.4 90.3254 25.016L90.7814 20.96H91.1894L92.4374 24.104C92.7574 24.376 93.1094 24.608 93.4934 24.8C93.8934 24.976 94.3494 25.064 94.8614 25.064C95.8054 25.064 96.5734 24.808 97.1654 24.296C97.7734 23.768 98.0774 23.064 98.0774 22.184C98.0774 21.72 97.9814 21.328 97.7894 21.008C97.5974 20.672 97.2694 20.336 96.8054 20C96.3414 19.648 95.7014 19.232 94.8854 18.752C93.9894 18.208 93.3414 17.664 92.9414 17.12C92.5414 16.56 92.3414 15.84 92.3414 14.96C92.3414 14.032 92.6054 13.184 93.1334 12.416C93.6614 11.648 94.3734 11.04 95.2694 10.592C96.1654 10.144 97.1494 9.92 98.2214 9.92C98.9734 9.92 99.6694 10.016 100.309 10.208C100.949 10.4 101.533 10.672 102.061 11.024L101.653 14.864H101.245L100.021 11.96C99.7654 11.736 99.4854 11.544 99.1814 11.384C98.8774 11.208 98.4774 11.12 97.9814 11.12C97.2454 11.12 96.6214 11.376 96.1094 11.888C95.5974 12.384 95.3414 13.008 95.3414 13.76C95.3414 14.32 95.5094 14.816 95.8454 15.248C96.1814 15.664 96.8214 16.16 97.7654 16.736C98.5334 17.184 99.1654 17.608 99.6614 18.008C100.157 18.408 100.517 18.84 100.741 19.304C100.981 19.768 101.101 20.328 101.101 20.984C101.101 21.96 100.821 22.848 100.261 23.648C99.7174 24.432 98.9734 25.064 98.0294 25.544C97.0854 26.008 96.0214 26.24 94.8374 26.24ZM107.966 26H104.87L107.654 9.968L105.926 9.176V8.864L111.038 8H111.11L109.526 17.096H109.622C110.134 16.536 110.574 16.088 110.942 15.752C111.326 15.416 111.702 15.176 112.07 15.032C112.454 14.888 112.894 14.816 113.39 14.816C114.222 14.816 114.854 15.136 115.286 15.776C115.734 16.416 115.862 17.28 115.67 18.368L114.878 22.976C114.75 23.728 114.886 24.104 115.286 24.104C115.526 24.104 115.774 23.976 116.03 23.72C116.302 23.448 116.582 23 116.87 22.376L117.302 22.52C116.854 23.704 116.342 24.624 115.766 25.28C115.19 25.92 114.518 26.24 113.75 26.24C112.966 26.24 112.398 25.96 112.046 25.4C111.694 24.84 111.614 24.032 111.806 22.976L112.598 18.464C112.662 18.032 112.622 17.656 112.478 17.336C112.334 17 112.014 16.832 111.518 16.832C111.134 16.832 110.75 16.984 110.366 17.288C109.982 17.576 109.63 17.896 109.31 18.248L107.966 26ZM122.003 26.24C121.347 26.24 120.811 25.976 120.395 25.448C119.979 24.904 119.771 24.128 119.771 23.12C119.771 21.968 119.971 20.888 120.371 19.88C120.771 18.872 121.307 17.992 121.979 17.24C122.667 16.488 123.419 15.896 124.235 15.464C125.067 15.032 125.907 14.816 126.755 14.816C127.603 14.816 128.307 15.016 128.867 15.416L130.091 14.96H130.571L129.155 22.976C129.027 23.728 129.163 24.104 129.563 24.104C129.803 24.104 130.059 23.976 130.331 23.72C130.603 23.448 130.883 23 131.171 22.376L131.603 22.52C131.155 23.704 130.643 24.624 130.067 25.28C129.491 25.92 128.819 26.24 128.051 26.24C127.331 26.24 126.795 26.008 126.443 25.544C126.091 25.08 125.955 24.416 126.035 23.552H125.963C125.275 24.48 124.627 25.16 124.019 25.592C123.411 26.024 122.739 26.24 122.003 26.24ZM122.963 21.824C122.963 22.592 123.035 23.152 123.179 23.504C123.323 23.856 123.587 24.032 123.971 24.032C124.387 24.032 124.779 23.856 125.147 23.504C125.531 23.152 125.891 22.736 126.227 22.256L127.211 16.52C127.035 16.328 126.843 16.184 126.635 16.088C126.427 15.976 126.179 15.92 125.891 15.92C125.315 15.92 124.803 16.2 124.355 16.76C123.923 17.32 123.579 18.048 123.323 18.944C123.083 19.84 122.963 20.8 122.963 21.824ZM134.124 26L135.732 16.784L134.148 15.968V15.68L138.588 14.816H138.66V17.384H138.804C139.3 16.632 139.708 16.072 140.028 15.704C140.364 15.336 140.66 15.096 140.916 14.984C141.172 14.872 141.436 14.816 141.708 14.816C142.076 14.816 142.38 14.912 142.62 15.104C142.876 15.296 143.004 15.496 143.004 15.704C143.004 15.832 142.972 15.968 142.908 16.112L142.068 17.84H141.924L141.636 17.624C141.46 17.496 141.284 17.4 141.108 17.336C140.948 17.256 140.732 17.216 140.46 17.216C140.124 17.216 139.812 17.312 139.524 17.504C139.236 17.68 138.892 18.056 138.492 18.632L137.22 26H134.124ZM148.216 26.24C146.904 26.24 145.936 25.872 145.312 25.136C144.704 24.4 144.4 23.392 144.4 22.112C144.4 21.216 144.56 20.336 144.88 19.472C145.216 18.608 145.68 17.824 146.272 17.12C146.864 16.416 147.568 15.856 148.384 15.44C149.2 15.024 150.088 14.816 151.048 14.816C151.88 14.816 152.512 15.008 152.944 15.392C153.376 15.76 153.592 16.208 153.592 16.736C153.592 17.2 153.416 17.64 153.064 18.056C152.728 18.456 152.12 18.84 151.24 19.208C150.36 19.576 149.12 19.944 147.52 20.312C147.504 20.52 147.496 20.736 147.496 20.96C147.496 21.808 147.72 22.488 148.168 23C148.616 23.496 149.192 23.744 149.896 23.744C150.392 23.744 150.864 23.632 151.312 23.408C151.76 23.168 152.256 22.8 152.8 22.304H152.872L153.208 22.64C152.856 23.28 152.424 23.872 151.912 24.416C151.416 24.96 150.848 25.4 150.208 25.736C149.584 26.072 148.92 26.24 148.216 26.24ZM150.256 15.8C149.648 15.8 149.096 16.136 148.6 16.808C148.12 17.464 147.792 18.344 147.616 19.448C148.976 19.08 149.912 18.672 150.424 18.224C150.936 17.76 151.192 17.248 151.192 16.688C151.192 16.464 151.12 16.264 150.976 16.088C150.832 15.896 150.592 15.8 150.256 15.8Z" fill="white"/>
</g>
</svg>
